<svg id="eKv7TFueImY1" xmlns="http://www.w3.org/2000/svg" xmlns:xlink="http://www.w3.org/1999/xlink" viewBox="0 0 300 300" shape-rendering="geometricPrecision" text-rendering="geometricPrecision" width="300" height="300"><polygon points="-13.364733,-69.564583 33.51523,-46.049308 33.51523,0.981242 -13.364733,24.496516 -60.244696,0.981242 -60.244696,-46.049308 -13.364733,-69.564583" transform="matrix(0-.934509 1.108634 0 97.96903 132.967079)" fill="#ff9858" stroke="#ff9858" stroke-width="5"/><polygon points="-13.364733,-69.564583 33.51523,-46.049308 33.51523,0.981242 -13.364733,24.496516 -60.244696,0.981242 -60.244696,-46.049308 -13.364733,-69.564583" transform="matrix(0-.934509 1.108634 0 183.509558 181.320284)" fill="#ffbf00" stroke="#ffbf00" stroke-width="5"/><polygon points="-13.364733,-69.564583 33.51523,-46.049308 33.51523,0.981242 -13.364733,24.496516 -60.244696,0.981242 -60.244696,-46.049308 -13.364733,-69.564583" transform="matrix(0-.934509 1.108634 0 97.96903 229.131625)" fill="none" stroke="#ffbf00" stroke-width="5"/><polygon points="-13.364733,-69.564583 33.51523,-46.049308 33.51523,0.981242 -13.364733,24.496516 -60.244696,0.981242 -60.244696,-46.049308 -13.364733,-69.564583" transform="matrix(0-.934509 1.108634 0 184.509558 85.157332)" fill="none" stroke="#ff9858" stroke-width="5"/><polygon points="-13.364733,-69.564583 33.51523,-46.049308 33.51523,0.981242 -13.364733,24.496516 -60.244696,0.981242 -60.244696,-46.049308 -13.364733,-69.564583" transform="matrix(0-.934509 1.108634 0 97.96903 36.347585)" fill="#ff9858" stroke="#ff9858" stroke-width="5"/><polygon points="-13.364733,-69.564583 33.51523,-46.049308 33.51523,0.981242 -13.364733,24.496516 -60.244696,0.981242 -60.244696,-46.049308 -13.364733,-69.564583" transform="matrix(0-.934509 1.108634 0 270.638489 133.967079)" fill="none" stroke="#ffbf00" stroke-width="5"/></svg>
